<?xml version="1.0" encoding="UTF-8"?>
<svg id="Layer_2" data-name="Layer 2" xmlns="http://www.w3.org/2000/svg" viewBox="0 0 450.87 96.22">
  <defs>
    <style>
      .cls-1 {
        fill: #222026;
      }

      .cls-2 {
        fill: #a9a1c0;
      }

      .cls-3 {
        fill: #44404d;
      }

      .cls-4 {
        fill: #878199;
      }

      .cls-5 {
        fill: #cbc1e6;
      }

      .cls-6 {
        fill: #666173;
      }
    </style>
  </defs>
  <g id="Layer_1-2" data-name="Layer 1">
    <g>
      <polygon points="181.26 95.92 185.45 95.92 185.45 87.86 194.95 87.86 194.95 83.88 185.45 83.88 185.45 79.08 194.95 79.08 194.95 75.1 181.26 75.1 181.26 95.92"/>
      <polygon points="200.23 95.92 204.26 95.92 204.26 80.52 200.23 81.85 200.23 95.92"/>
      <path d="M219.29,84.79v-3.74h-4.24v-4.78l-4,1.33v10.36c0,1.12,.21,2.19,.64,3.2,.4,.99,1.01,1.87,1.76,2.62,.75,.77,1.63,1.36,2.61,1.79,1.01,.43,2.11,.64,3.23,.64v-4c-2.35,0-4.24-1.9-4.24-4.24v-3.18h4.24Z"/>
      <polygon points="243.2 95.92 246.59 95.92 251.71 81.05 247.5 81.05 244.94 88.79 242.51 81.05 239.28 81.05 236.9 88.79 234.32 81.05 230.1 81.05 235.25 95.92 238.56 95.92 240.88 88.55 243.2 95.92"/>
      <polygon points="256.51 95.92 260.54 95.92 260.54 80.52 256.51 81.85 256.51 95.92"/>
      <path d="M275.58,84.79v-3.74h-4.24v-4.78l-4,1.33v10.36c0,1.12,.21,2.19,.64,3.2,.4,.99,1.01,1.87,1.76,2.62,.75,.77,1.63,1.36,2.61,1.79,1.01,.43,2.11,.64,3.23,.64v-4c-2.35,0-4.24-1.9-4.24-4.24v-3.18h4.24Z"/>
      <path d="M292.38,83.14c-1.28-1.28-2.96-1.98-4.78-1.98-.96,0-1.89,.19-2.75,.59v-7.34l-4,1.33v11.59c-.03,.21-.03,.4-.03,.61h.03v7.98h4v-8.38c.19-1.33,1.33-2.38,2.75-2.38,1.52,0,2.77,1.23,2.77,2.78v7.98h4v-7.98c0-1.82-.72-3.52-2-4.8Z"/>
      <polygon points="308.06 95.92 312.25 95.92 312.25 87.86 321.75 87.86 321.75 83.88 312.25 83.88 312.25 79.08 321.75 79.08 321.75 75.1 308.06 75.1 308.06 95.92"/>
      <path d="M334.94,91.62c-.53,.32-1.17,.51-1.81,.51-1.97,0-3.6-1.63-3.6-3.6s1.63-3.6,3.6-3.6c.69,0,1.39,.19,1.95,.59,.59,.35,1.04,.88,1.31,1.49,.24,.48,.35,.99,.35,1.52,0,.64-.16,1.25-.48,1.82-.32,.53-.75,.99-1.31,1.28h0Zm1.6-10.73l.03,.85c-1.07-.53-2.24-.83-3.44-.83-1.01,0-2.03,.19-2.96,.59-.91,.4-1.71,.93-2.43,1.63-.69,.69-1.23,1.52-1.63,2.43-.37,.93-.59,1.95-.59,2.96s.21,2.03,.59,2.96c.4,.91,.93,1.71,1.63,2.43,.72,.69,1.52,1.23,2.43,1.63,.93,.37,1.95,.59,2.96,.59,1.2,0,2.37-.29,3.44-.83l-.03,.61h4v-15.03h-4Z"/>
      <path d="M352.22,96.08c2.69,0,4.88-2.19,4.88-4.89s-2.19-4.89-4.88-4.89h-1.12c-.4,0-.69-.32-.69-.69,0-.4,.29-.72,.69-.72h5.58v-4.19h-5.58c-2.69,0-4.88,2.22-4.88,4.91s2.19,4.89,4.88,4.89h1.12c.37,0,.69,.32,.69,.69,0,.4-.32,.69-.69,.69h-6.24v4.19h6.24Z"/>
      <path d="M374.04,83.14c-1.28-1.28-2.96-1.98-4.78-1.98-.96,0-1.89,.19-2.75,.59v-7.34l-4,1.33v11.59c-.03,.21-.03,.4-.03,.61h.03v7.98h4v-8.38c.19-1.33,1.33-2.38,2.75-2.38,1.52,0,2.78,1.23,2.78,2.78v7.98h4v-7.98c0-1.82-.72-3.52-2-4.8h0Z"/>
      <polygon points="382.32 95.92 386.35 95.92 386.35 80.52 382.32 81.85 382.32 95.92"/>
      <path d="M399.65,84.9c1.97,0,3.6,1.63,3.6,3.6s-1.63,3.6-3.6,3.6-3.6-1.63-3.6-3.6,1.63-3.6,3.6-3.6Zm0,11.21c1.01,0,2.03-.21,2.96-.59,.91-.4,1.73-.93,2.43-1.63,.69-.72,1.23-1.52,1.63-2.43,.4-.93,.59-1.95,.59-2.96s-.19-2.03-.59-2.96c-.4-.91-.93-1.74-1.63-2.43-.72-.69-1.52-1.23-2.43-1.63-.93-.4-1.95-.59-2.96-.59s-2.03,.19-2.96,.59c-.91,.4-1.71,.93-2.43,1.63-.69,.72-1.23,1.52-1.63,2.43-.37,.93-.59,1.92-.59,2.96s.21,2.03,.59,2.96c.4,.91,.93,1.71,1.63,2.43,.72,.69,1.52,1.23,2.43,1.63,.93,.37,1.95,.59,2.96,.59Z"/>
      <path d="M424.33,83.27c-1.28-1.25-2.96-1.95-4.75-1.95-.96,0-1.87,.19-2.7,.56v-.99h-4v6.54c-.03,.21-.03,.4-.03,.61h.03v7.87h4v-8.28c.19-1.31,1.31-2.32,2.7-2.32,1.49,0,2.72,1.23,2.72,2.72v7.87h4v-7.87c0-1.82-.72-3.5-1.97-4.78Z"/>
      <g>
        <path d="M156.7,58.37h4.25v-25.77h33.09v-3.84h-37.34v29.6Zm0-58.37V3.84h37.34V0h-37.34Z"/>
        <rect class="cls-1" x="209.29" width="4.25" height="58.37"/>
        <polygon class="cls-3" points="245.04 3.84 245.04 58.37 249.29 58.37 249.29 3.84 270.29 3.84 270.29 0 224.03 0 224.03 3.84 245.04 3.84"/>
        <polygon class="cls-6" points="292.74 3.84 292.74 58.37 296.99 58.37 296.99 3.84 317.99 3.84 317.99 0 271.73 0 271.73 3.84 292.74 3.84"/>
        <rect class="cls-4" x="328.45" width="4.25" height="58.37"/>
        <path class="cls-2" d="M383.79,37.94c4.33-1.25,7.75-3.42,10.09-6.59,2.33-3.17,3.58-7,3.58-11.67,0-6.09-2.08-10.92-6.25-14.43-4.17-3.5-9.92-5.25-17.25-5.25h-20.92V3.84h20.92c6.17,0,10.92,1.42,14.25,4.17,3.25,2.75,4.92,6.67,4.92,11.67s-1.67,9.01-4.92,11.76c-3.33,2.75-8.09,4.09-14.25,4.09h-20.92v22.85h4.25v-19.1h16.67c1.67,0,3.58-.08,5.67-.42l13.92,19.51h4.83l-14.59-20.43Z"/>
        <path class="cls-5" d="M413.11,54.53v3.84h37.76v-3.84h-37.76ZM450.87,0h-37.76V3.84h37.76V0Zm0,26.85h-37.76v3.75h37.76v-3.75Z"/>
      </g>
      <path d="M92.38,93.8H22.86V30.23c-6,3.98-11.44,7.59-17.39,11.53C3.57,36.08,1.71,30.7,.03,25.26c-.18-.59,.56-1.68,1.14-2.27C7.92,16.16,14.71,9.35,21.54,2.6c.68-.67,1.74-1.31,2.64-1.33,5.19-.13,10.38-.06,15.51-.06,3.28,12.66,8.7,17.63,18.65,17.32,9.1-.28,14.55-5.77,16.95-17.32,5.23,0,10.54-.09,15.84,.08,.97,.03,2.05,.94,2.82,1.7,6.59,6.5,13.1,13.09,19.7,19.58,1.3,1.28,1.76,2.36,1.06,4.22-1.8,4.84-3.33,9.78-5.07,14.98-5.85-3.89-11.3-7.51-17.26-11.48v63.5Z"/>
    </g>
  </g>
</svg>